<mxfile host="65bd71144e">
    <diagram id="zLbFp-epC14pHI6Qjp55" name="Page-1">
        <mxGraphModel dx="633" dy="497" grid="1" gridSize="10" guides="1" tooltips="1" connect="1" arrows="1" fold="1" page="1" pageScale="1" pageWidth="850" pageHeight="1100" math="0" shadow="0">
            <root>
                <mxCell id="0"/>
                <mxCell id="1" parent="0"/>
                <mxCell id="2" value="" style="rounded=0;whiteSpace=wrap;html=1;strokeColor=#F0F0F0;" vertex="1" parent="1">
                    <mxGeometry x="110" y="90" width="480" height="360" as="geometry"/>
                </mxCell>
                <mxCell id="77" value="Nasa Mission Control Dashboard Project&lt;br&gt;" style="text;html=1;strokeColor=none;fillColor=none;align=center;verticalAlign=middle;whiteSpace=wrap;rounded=0;" vertex="1" parent="1">
                    <mxGeometry x="105" y="410" width="250" height="50" as="geometry"/>
                </mxCell>
                <mxCell id="78" value="" style="rounded=1;whiteSpace=wrap;html=1;strokeColor=#F0F0F0;gradientColor=default;" vertex="1" parent="1">
                    <mxGeometry x="190" y="250" width="120" height="70" as="geometry"/>
                </mxCell>
                <mxCell id="79" value="&lt;font style=&quot;font-size: 12px;&quot;&gt;Web-application&lt;br&gt;(FE)&lt;/font&gt;" style="text;html=1;strokeColor=none;fillColor=none;align=center;verticalAlign=middle;whiteSpace=wrap;rounded=0;fontSize=8;" vertex="1" parent="1">
                    <mxGeometry x="191.25" y="270" width="117.5" height="37.5" as="geometry"/>
                </mxCell>
                <mxCell id="81" value="" style="rounded=1;whiteSpace=wrap;html=1;strokeColor=#F0F0F0;fontSize=8;gradientColor=default;" vertex="1" parent="1">
                    <mxGeometry x="400" y="250" width="125" height="70" as="geometry"/>
                </mxCell>
                <mxCell id="82" value="" style="endArrow=classic;startArrow=classic;html=1;fontSize=8;entryX=1;entryY=0.5;entryDx=0;entryDy=0;exitX=0;exitY=0.5;exitDx=0;exitDy=0;" edge="1" parent="1" source="81" target="78">
                    <mxGeometry width="50" height="50" relative="1" as="geometry">
                        <mxPoint x="300" y="260" as="sourcePoint"/>
                        <mxPoint x="350" y="210" as="targetPoint"/>
                    </mxGeometry>
                </mxCell>
                <mxCell id="84" value="&lt;font style=&quot;font-size: 12px;&quot;&gt;HTTP&lt;/font&gt;" style="text;html=1;strokeColor=none;fillColor=none;align=center;verticalAlign=middle;whiteSpace=wrap;rounded=0;fontSize=8;" vertex="1" parent="1">
                    <mxGeometry x="321.25" y="261.25" width="60" height="30" as="geometry"/>
                </mxCell>
                <mxCell id="85" value="&lt;font style=&quot;font-size: 12px;&quot;&gt;Node API&lt;br&gt;(api)&lt;/font&gt;" style="text;html=1;strokeColor=none;fillColor=none;align=center;verticalAlign=middle;whiteSpace=wrap;rounded=0;fontSize=8;" vertex="1" parent="1">
                    <mxGeometry x="426.25" y="261.25" width="72.5" height="55" as="geometry"/>
                </mxCell>
                <mxCell id="86" value="" style="shape=document;whiteSpace=wrap;html=1;boundedLbl=1;strokeColor=#F0F0F0;fontSize=8;gradientColor=default;size=0.5;" vertex="1" parent="1">
                    <mxGeometry x="440" y="130" width="90" height="60" as="geometry"/>
                </mxCell>
            </root>
        </mxGraphModel>
    </diagram>
</mxfile>